<svg xmlns="http://www.w3.org/2000/svg" width="907" height="619" viewBox="0 0 907 619">
  <g fill="none" fill-rule="evenodd" transform="translate(1)">
    <g transform="translate(47 143)">
      <g transform="translate(0 191)">
        <polygon fill="#B971F7" fill-opacity=".051" points="0 238 238 0 476 238 429 285 238 94 47 285"/>
        <polygon stroke="#CCC" stroke-width=".241" points="0 238 238 0 476 238 429 285 238 94 47 285"/>
      </g>
      <g transform="translate(382 191)">
        <polygon fill="#B971F7" fill-opacity=".051" points="0 238 238 0 476 238 429 285 238 94 47 285"/>
        <polygon stroke="#CCC" stroke-width=".241" points="0 238 238 0 476 238 429 285 238 94 47 285"/>
      </g>
      <g transform="translate(262)">
        <polygon fill="#B971F7" fill-opacity=".051" points="167 0 0 166 238 404 285 357 94 166 214 47"/>
        <polygon stroke="#CCC" stroke-width=".241" points="167 0 0 166 238 404 285 357 94 166 214 47"/>
      </g>
    </g>
    <path stroke="#B971F7" stroke-opacity=".478" stroke-width=".633" d="M180,180 L619,619"/>
    <polyline stroke="#B971F7" stroke-opacity=".478" stroke-width=".633" points="94 619 684 28 684 28"/>
    <path stroke="#B971F7" stroke-opacity=".702" stroke-width=".633" d="M274,180 L713,619"/>
    <polyline stroke="#B971F7" stroke-opacity=".478" stroke-width=".633" points="0 619 619 0 619 0"/>
    <path stroke="#B971F7" stroke-opacity=".478" stroke-width=".633" d="M476,619 L784,311"/>
    <polyline stroke="#B971F7" stroke-opacity=".902" stroke-width=".633" points="382 619 810 191 810 191"/>
    <g transform="translate(594 449)">
      <path stroke="#46A1FF" stroke-opacity=".502" stroke-width=".241" d="M0 51L52 0M0 51L57 108"/>
      <g transform="translate(48 4)">
        <path stroke="#46A1FF" stroke-width=".241" d="M17,28 C14,17 8,8 0,0"/>
        <polygon fill="#46A1FF" points="11 6 0 0 6 10"/>
      </g>
      <g transform="translate(48 73)">
        <path stroke="#46A1FF" stroke-width=".241" d="M0,26 C8,19 14,9 17,0"/>
        <polygon fill="#46A1FF" points="11 20 0 26 6 16"/>
      </g>
      <g fill="#B971F7" font-family="Helvetica" font-size="11.174" transform="rotate(-90 64.879 4.038)">
        <text>
          <tspan x="0" y="11">90,00°</tspan>
        </text>
      </g>
    </g>
    <path stroke="#B971F7" stroke-opacity=".8" stroke-width=".633" d="M146,288 L476,619"/>
    <g transform="translate(25 312)">
      <path stroke="#B971F7" stroke-opacity=".502" stroke-width=".241" d="M255 16L238 0M17 254L0 238"/>
      <g transform="translate(146 5)">
        <path stroke="#B971F7" stroke-width=".241" d="M0,98 L98,0"/>
        <polygon fill="#B971F7" points="92 11 98 0 87 6"/>
      </g>
      <g transform="translate(6 145)">
        <path stroke="#B971F7" stroke-width=".241" d="M0,98 L98,0"/>
        <polygon fill="#B971F7" points="10 92 0 98 6 88"/>
      </g>
    </g>
    <text fill="#B971F7" font-family="Helvetica" font-size="11.174" transform="rotate(-45 606.429 72.146)">
      <tspan x="0" y="11">106,27 mm</tspan>
    </text>
    <g transform="translate(526 311)">
      <path stroke="#B971F7" stroke-opacity=".502" stroke-width=".241" d="M136 17L119 0M17 136L0 119"/>
      <g transform="translate(84 6)">
        <path stroke="#B971F7" stroke-width=".241" d="M0,40 L40,0"/>
        <polygon fill="#B971F7" points="34 10 40 0 30 6"/>
      </g>
      <g transform="translate(5 84)">
        <path stroke="#B971F7" stroke-width=".241" d="M0,41 L41,0"/>
        <polygon fill="#B971F7" points="11 34 0 41 6 30"/>
      </g>
    </g>
    <text fill="#B971F7" font-family="Helvetica" font-size="11.174" transform="rotate(-45 752.446 -494.572)">
      <tspan x="0" y="11">53,13 mm</tspan>
    </text>
    <g transform="translate(262 433)">
      <path stroke="#B971F7" stroke-opacity=".502" stroke-width=".241" d="M162 144L144 162M18 0L0 18"/>
      <g transform="translate(98 105)">
        <path stroke="#B971F7" stroke-width=".241" d="M0,0 L51,52"/>
        <polygon fill="#B971F7" points="41 45 51 52 45 41"/>
      </g>
      <g transform="translate(5 12)">
        <path stroke="#B971F7" stroke-width=".241" d="M0,0 L53,53"/>
        <polygon fill="#B971F7" points="6 11 0 0 11 7"/>
      </g>
    </g>
    <text fill="#B971F7" font-family="Helvetica" font-size="11.174" transform="rotate(45 -435.087 643.15)">
      <tspan x="0" y="11">64,36 mm</tspan>
    </text>
  </g>
</svg>
